<?xml version="1.0" standalone="no"?><!DOCTYPE svg PUBLIC "-//W3C//DTD SVG 1.1//EN" "http://www.w3.org/Graphics/SVG/1.1/DTD/svg11.dtd"><svg t="1709605379203" class="icon" viewBox="0 0 1024 1024" version="1.1" xmlns="http://www.w3.org/2000/svg" p-id="2400" xmlns:xlink="http://www.w3.org/1999/xlink" width="200" height="200"><path d="M213.333 768V256H128v512h85.333zM256 213.333h170.667V128H256v85.333z m170.667 0H768V128H426.667v85.333zM768 810.667H426.667V896H768v-85.333z m-341.333 0H256V896h170.667v-85.333z m-42.667-640V512h85.333V170.667H384zM384 512v341.333h85.333V512H384z m426.667-256v256H896V256h-85.333z m0 256v256H896V512h-85.333z m-384 42.667h426.666v-85.334H426.667v85.334zM128 768a128 128 0 0 0 128 128v-85.333A42.667 42.667 0 0 1 213.333 768H128z m640 128a128 128 0 0 0 128-128h-85.333A42.667 42.667 0 0 1 768 810.667V896z m0-682.667A42.667 42.667 0 0 1 810.667 256H896a128 128 0 0 0-128-128v85.333zM213.333 256A42.667 42.667 0 0 1 256 213.333V128a128 128 0 0 0-128 128h85.333z" p-id="2401" fill="#1296db"></path></svg>
