<?xml version="1.0" standalone="no"?><!DOCTYPE svg PUBLIC "-//W3C//DTD SVG 1.1//EN" "http://www.w3.org/Graphics/SVG/1.1/DTD/svg11.dtd"><svg t="1709605421366" class="icon" viewBox="0 0 1024 1024" version="1.1" xmlns="http://www.w3.org/2000/svg" p-id="3182" xmlns:xlink="http://www.w3.org/1999/xlink" width="200" height="200"><path d="M256 213.333h512V128H256v85.333zM213.333 768V384H128v384h85.333z m0-384V256H128v128h85.333z m597.334-128v128H896V256h-85.333z m-640 170.667H384v-85.334H170.667v85.334z m213.333 0h469.333v-85.334H384v85.334z m384 384H384V896h384v-85.333z m-384 0H256V896h128v-85.333zM341.333 384v234.667h85.334V384h-85.334z m0 234.667v234.666h85.334V618.667h-85.334zM810.667 384v234.667H896V384h-85.333z m0 234.667V768H896V618.667h-85.333zM384 661.333h469.333V576H384v85.333zM128 768a128 128 0 0 0 128 128v-85.333A42.667 42.667 0 0 1 213.333 768H128z m640 128a128 128 0 0 0 128-128h-85.333A42.667 42.667 0 0 1 768 810.667V896z m0-682.667A42.667 42.667 0 0 1 810.667 256H896a128 128 0 0 0-128-128v85.333zM256 128a128 128 0 0 0-128 128h85.333A42.667 42.667 0 0 1 256 213.333V128z" p-id="3183" fill="#1296db"></path></svg>
