<?xml version="1.0" standalone="no"?><!DOCTYPE svg PUBLIC "-//W3C//DTD SVG 1.1//EN" "http://www.w3.org/Graphics/SVG/1.1/DTD/svg11.dtd"><svg t="1709605444428" class="icon" viewBox="0 0 1024 1024" version="1.1" xmlns="http://www.w3.org/2000/svg" p-id="3812" xmlns:xlink="http://www.w3.org/1999/xlink" width="200" height="200"><path d="M213.333 768V256H128v512h85.333zM256 213.333h128V128H256v85.333z m128 0h384V128H384v85.333zM256 896h128v-85.333H256V896z m85.333-725.333v298.666h85.334V170.667h-85.334z m0 298.666v384h85.334v-384h-85.334zM810.667 256v213.333H896V256h-85.333z m0 213.333V768H896V469.333h-85.333zM384 512h234.667v-85.333H384V512z m234.667 0h234.666v-85.333H618.667V512zM384 896h234.667v-85.333H384V896z m234.667 0H768v-85.333H618.667V896zM576 469.333v384h85.333v-384H576zM128 768a128 128 0 0 0 128 128v-85.333A42.667 42.667 0 0 1 213.333 768H128z m682.667 0A42.667 42.667 0 0 1 768 810.667V896a128 128 0 0 0 128-128h-85.333zM768 213.333A42.667 42.667 0 0 1 810.667 256H896a128 128 0 0 0-128-128v85.333zM213.333 256A42.667 42.667 0 0 1 256 213.333V128a128 128 0 0 0-128 128h85.333z" p-id="3813" fill="#1296db"></path></svg>
