<?xml version="1.0" standalone="no"?><!DOCTYPE svg PUBLIC "-//W3C//DTD SVG 1.1//EN" "http://www.w3.org/Graphics/SVG/1.1/DTD/svg11.dtd"><svg t="1709605449035" class="icon" viewBox="0 0 1024 1024" version="1.1" xmlns="http://www.w3.org/2000/svg" p-id="3968" xmlns:xlink="http://www.w3.org/1999/xlink" width="200" height="200"><path d="M810.667 256v142.208H896V256h-85.333z m0 142.208v227.584H896V398.208h-85.333z m0 227.584V768H896V625.792h-85.333zM625.792 213.333H768V128H625.792v85.333z m0 682.667H768v-85.333H625.792V896z m-42.667-725.333v227.541h85.334V170.667h-85.334zM853.333 355.54H625.792v85.334h227.541V355.54z m-270.208 42.667v227.584h85.334V398.208h-85.334z m0 227.584v227.541h85.334V625.792h-85.334z m270.208-42.667H625.792v85.334h227.541v-85.334zM128 768a128 128 0 0 0 128 128v-85.333A42.667 42.667 0 0 1 213.333 768H128z m682.667 0A42.667 42.667 0 0 1 768 810.667V896a128 128 0 0 0 128-128h-85.333zM896 256a128 128 0 0 0-128-128v85.333A42.667 42.667 0 0 1 810.667 256H896z m-682.667 0A42.667 42.667 0 0 1 256 213.333V128a128 128 0 0 0-128 128h85.333z m0 512V256H128v512h85.333zM256 213.333h369.792V128H256v85.333zM256 896h369.792v-85.333H256V896z" p-id="3969" fill="#1296db"></path></svg>
