<?xml version="1.0" standalone="no"?><!DOCTYPE svg PUBLIC "-//W3C//DTD SVG 1.1//EN" "http://www.w3.org/Graphics/SVG/1.1/DTD/svg11.dtd"><svg t="1709605394757" class="icon" viewBox="0 0 1024 1024" version="1.1" xmlns="http://www.w3.org/2000/svg" p-id="2712" xmlns:xlink="http://www.w3.org/1999/xlink" width="200" height="200"><path d="M256 213.333h512V128H256v85.333zM213.333 768V384H128v384h85.333z m0-384V256H128v128h85.333z m597.334-128v128H896V256h-85.333z m0 128v384H896V384h-85.333z m-640 42.667h426.666v-85.334H170.667v85.334z m426.666 0h256v-85.334h-256v85.334z m170.667 384H597.333V896H768v-85.333z m-170.667 0H256V896h341.333v-85.333zM554.667 384v469.333H640V384h-85.333zM128 768a128 128 0 0 0 128 128v-85.333A42.667 42.667 0 0 1 213.333 768H128z m682.667 0A42.667 42.667 0 0 1 768 810.667V896a128 128 0 0 0 128-128h-85.333zM768 213.333A42.667 42.667 0 0 1 810.667 256H896a128 128 0 0 0-128-128v85.333zM256 128a128 128 0 0 0-128 128h85.333A42.667 42.667 0 0 1 256 213.333V128z" p-id="2713"></path></svg>